<?xml version="1.0" standalone="no"?>
<svg xmlns="http://www.w3.org/2000/svg" viewBox="0 0 133 34" width="133" height="34"><path fill="#3f37c9" fill-rule="nonzero" d="M11.09 5.18L12.79 5.18L12.79 17.81L11.16 17.81L11.16 15.31Q10.39 16.58 9.13 17.26Q7.87 17.93 6.29 17.93L6.29 17.93Q4.51 17.93 3.07 17.11Q1.63 16.30 0.82 14.83Q0 13.37 0 11.50L0 11.50Q0 9.62 0.82 8.16Q1.63 6.70 3.07 5.89Q4.51 5.09 6.29 5.09L6.29 5.09Q7.82 5.09 9.06 5.72Q10.30 6.36 11.09 7.58L11.09 7.58L11.09 5.18ZM6.43 16.42Q7.75 16.42 8.82 15.80Q9.89 15.19 10.50 14.06Q11.11 12.94 11.11 11.50L11.11 11.50Q11.11 10.06 10.50 8.93Q9.89 7.80 8.82 7.19Q7.75 6.58 6.43 6.58L6.43 6.58Q5.09 6.58 4.02 7.19Q2.95 7.80 2.34 8.93Q1.73 10.06 1.73 11.50L1.73 11.50Q1.73 12.94 2.34 14.06Q2.95 15.19 4.02 15.80Q5.09 16.42 6.43 16.42L6.43 16.42ZM27.36 0L29.06 0L29.06 17.81L27.43 17.81L27.43 15.31Q26.66 16.58 25.40 17.26Q24.14 17.93 22.56 17.93L22.56 17.93Q20.78 17.93 19.34 17.11Q17.90 16.30 17.09 14.83Q16.27 13.37 16.27 11.50L16.27 11.50Q16.27 9.62 17.09 8.16Q17.90 6.70 19.34 5.89Q20.78 5.09 22.56 5.09L22.56 5.09Q24.10 5.09 25.33 5.72Q26.57 6.36 27.36 7.58L27.36 7.58L27.36 0ZM22.70 16.42Q24.02 16.42 25.09 15.80Q26.16 15.19 26.77 14.06Q27.38 12.94 27.38 11.50L27.38 11.50Q27.38 10.06 26.77 8.93Q26.16 7.80 25.09 7.19Q24.02 6.58 22.70 6.58L22.70 6.58Q21.36 6.58 20.29 7.19Q19.22 7.80 18.61 8.93Q18.00 10.06 18.00 11.50L18.00 11.50Q18.00 12.94 18.61 14.06Q19.22 15.19 20.29 15.80Q21.36 16.42 22.70 16.42L22.70 16.42ZM43.63 5.18L45.34 5.18L45.34 17.81L43.70 17.81L43.70 15.31Q42.94 16.58 41.68 17.26Q40.42 17.93 38.83 17.93L38.83 17.93Q37.06 17.93 35.62 17.11Q34.18 16.30 33.36 14.83Q32.54 13.37 32.54 11.50L32.54 11.50Q32.54 9.62 33.36 8.16Q34.18 6.70 35.62 5.89Q37.06 5.09 38.83 5.09L38.83 5.09Q40.37 5.09 41.60 5.72Q42.84 6.36 43.63 7.58L43.63 7.58L43.63 5.18ZM38.98 16.42Q40.30 16.42 41.36 15.80Q42.43 15.19 43.04 14.06Q43.66 12.94 43.66 11.50L43.66 11.50Q43.66 10.06 43.04 8.93Q42.43 7.80 41.36 7.19Q40.30 6.58 38.98 6.58L38.98 6.58Q37.63 6.58 36.56 7.19Q35.50 7.80 34.88 8.93Q34.27 10.06 34.27 11.50L34.27 11.50Q34.27 12.94 34.88 14.06Q35.50 15.19 36.56 15.80Q37.63 16.42 38.98 16.42L38.98 16.42ZM65.83 5.09Q68.21 5.09 69.56 6.46Q70.92 7.82 70.92 10.49L70.92 10.49L70.92 17.81L69.22 17.81L69.22 10.66Q69.22 8.69 68.27 7.66Q67.32 6.62 65.59 6.62L65.59 6.62Q63.62 6.62 62.50 7.84Q61.37 9.05 61.37 11.18L61.37 11.18L61.37 17.81L59.66 17.81L59.66 10.66Q59.66 8.69 58.72 7.66Q57.77 6.62 56.02 6.62L56.02 6.62Q54.07 6.62 52.93 7.84Q51.79 9.05 51.79 11.18L51.79 11.18L51.79 17.81L50.09 17.81L50.09 5.18L51.72 5.18L51.72 7.49Q52.39 6.34 53.59 5.71Q54.79 5.09 56.35 5.09L56.35 5.09Q57.94 5.09 59.10 5.76Q60.26 6.43 60.84 7.75L60.84 7.75Q61.54 6.50 62.84 5.80Q64.15 5.09 65.83 5.09L65.83 5.09ZM78.94 17.93Q77.40 17.93 76.00 17.48Q74.59 17.04 73.80 16.37L73.80 16.37L74.57 15.02Q75.36 15.65 76.56 16.04Q77.76 16.44 79.06 16.44L79.06 16.44Q80.78 16.44 81.61 15.90Q82.44 15.36 82.44 14.38L82.44 14.38Q82.44 13.68 81.98 13.28Q81.53 12.89 80.83 12.68Q80.14 12.48 78.98 12.29L78.98 12.29Q77.45 12 76.51 11.70Q75.58 11.40 74.92 10.68Q74.26 9.96 74.26 8.69L74.26 8.69Q74.26 7.10 75.58 6.10Q76.90 5.09 79.25 5.09L79.25 5.09Q80.47 5.09 81.70 5.41Q82.92 5.74 83.71 6.26L83.71 6.26L82.97 7.63Q81.41 6.55 79.25 6.55L79.25 6.55Q77.62 6.55 76.79 7.13Q75.96 7.70 75.96 8.64L75.96 8.64Q75.96 9.36 76.43 9.79Q76.90 10.22 77.59 10.43Q78.29 10.63 79.51 10.85L79.51 10.85Q81.02 11.14 81.94 11.42Q82.85 11.71 83.50 12.41Q84.14 13.10 84.14 14.33L84.14 14.33Q84.14 15.98 82.76 16.96Q81.38 17.93 78.94 17.93L78.94 17.93ZM97.10 5.18L98.81 5.18L98.81 17.81L97.18 17.81L97.18 15.31Q96.41 16.58 95.15 17.26Q93.89 17.93 92.30 17.93L92.30 17.93Q90.53 17.93 89.09 17.11Q87.65 16.30 86.83 14.83Q86.02 13.37 86.02 11.50L86.02 11.50Q86.02 9.62 86.83 8.16Q87.65 6.70 89.09 5.89Q90.53 5.09 92.30 5.09L92.30 5.09Q93.84 5.09 95.08 5.72Q96.31 6.36 97.10 7.58L97.10 7.58L97.10 5.18ZM92.45 16.42Q93.77 16.42 94.84 15.80Q95.90 15.19 96.52 14.06Q97.13 12.94 97.13 11.50L97.13 11.50Q97.13 10.06 96.52 8.93Q95.90 7.80 94.84 7.19Q93.77 6.58 92.45 6.58L92.45 6.58Q91.10 6.58 90.04 7.19Q88.97 7.80 88.36 8.93Q87.74 10.06 87.74 11.50L87.74 11.50Q87.74 12.94 88.36 14.06Q88.97 15.19 90.04 15.80Q91.10 16.42 92.45 16.42L92.45 16.42ZM110.06 5.09Q111.84 5.09 113.28 5.89Q114.72 6.70 115.54 8.16Q116.35 9.62 116.35 11.50L116.35 11.50Q116.35 13.39 115.54 14.86Q114.72 16.32 113.29 17.12Q111.86 17.93 110.06 17.93L110.06 17.93Q108.53 17.93 107.29 17.29Q106.06 16.66 105.26 15.43L105.26 15.43L105.26 22.46L103.56 22.46L103.56 5.18L105.19 5.18L105.19 7.68Q105.96 6.43 107.22 5.76Q108.48 5.09 110.06 5.09L110.06 5.09ZM109.94 16.42Q111.26 16.42 112.34 15.80Q113.42 15.19 114.04 14.06Q114.65 12.94 114.65 11.50L114.65 11.50Q114.65 10.06 114.04 8.94Q113.42 7.82 112.34 7.20Q111.26 6.58 109.94 6.58L109.94 6.58Q108.60 6.58 107.53 7.20Q106.46 7.82 105.85 8.94Q105.24 10.06 105.24 11.50L105.24 11.50Q105.24 12.94 105.85 14.06Q106.46 15.19 107.53 15.80Q108.60 16.42 109.94 16.42L109.94 16.42ZM126.34 5.09Q128.11 5.09 129.55 5.89Q130.99 6.70 131.81 8.16Q132.62 9.62 132.62 11.50L132.62 11.50Q132.62 13.39 131.81 14.86Q130.99 16.32 129.56 17.12Q128.14 17.93 126.34 17.93L126.34 17.93Q124.80 17.93 123.56 17.29Q122.33 16.66 121.54 15.43L121.54 15.43L121.54 22.46L119.83 22.46L119.83 5.18L121.46 5.18L121.46 7.68Q122.23 6.43 123.49 5.76Q124.75 5.09 126.34 5.09L126.34 5.09ZM126.22 16.42Q127.54 16.42 128.62 15.80Q129.70 15.19 130.31 14.06Q130.92 12.94 130.92 11.50L130.92 11.50Q130.92 10.06 130.31 8.94Q129.70 7.82 128.62 7.20Q127.54 6.58 126.22 6.58L126.22 6.58Q124.87 6.58 123.80 7.20Q122.74 7.82 122.12 8.94Q121.51 10.06 121.51 11.50L121.51 11.50Q121.51 12.94 122.12 14.06Q122.74 15.19 123.80 15.80Q124.87 16.42 126.22 16.42L126.22 16.42Z"></path><line x1="39.787200000000006" y1="32.464" x2="92.83680000000001" y2="32.464" stroke="#3f37c9" stroke-linecap="round"></line></svg>